<svg width="197" height="38" viewBox="0 0 197 38" fill="none" xmlns="http://www.w3.org/2000/svg">
<rect y="4" width="46" height="29" rx="10" fill="#E10003"/>
<path d="M36.0912 15.5825L36.1156 15.59L36.1402 15.5968C36.3271 15.6479 36.4419 15.7172 36.5 15.7635V22.2405C36.4429 22.286 36.3305 22.3541 36.1475 22.4052L36.125 22.4115L36.1027 22.4185C35.9405 22.4692 35.7516 22.4993 35.5517 22.5C35.1733 22.4982 34.8603 22.3986 34.6692 22.2809L31.5467 20.286L29.5386 19.003L31.5494 17.7123L34.6599 15.7158C34.6606 15.7153 34.6613 15.7149 34.662 15.7145C34.7991 15.6278 35.017 15.5441 35.2971 15.5127C35.5765 15.4815 35.8566 15.5096 36.0912 15.5825ZM29.2391 18.8117V19.1952V21.55V23C29.2391 23.1804 29.1355 23.5267 28.6138 23.8867C28.088 24.2495 27.2914 24.5 26.3913 24.5H13.3478C12.4477 24.5 11.6511 24.2495 11.1253 23.8867C10.6036 23.5267 10.5 23.1804 10.5 23V15C10.5 14.8196 10.6036 14.4733 11.1253 14.1133C11.6511 13.7505 12.4477 13.5 13.3478 13.5H26.3913C27.2914 13.5 28.088 13.7505 28.6138 14.1133C29.1355 14.4733 29.2391 14.8196 29.2391 15V16.45V18.8117Z" stroke="white" stroke-width="3"/>
<path d="M62 15.88L61.392 24.76C61.3813 24.92 61.3227 25 61.216 25H60.336C59.7387 25 59.312 24.8827 59.056 24.648C58.8 24.4133 58.672 24.0773 58.672 23.64C58.672 23.48 58.6773 23.24 58.688 22.92C58.7093 22.6 58.736 22.2267 58.768 21.8C58.8 21.3627 58.832 20.8933 58.864 20.392C58.9067 19.88 58.9493 19.368 58.992 18.856C59.0347 18.3333 59.072 17.816 59.104 17.304C59.1467 16.792 59.184 16.3173 59.216 15.88H56.656C56.5387 15.88 56.48 15.8053 56.48 15.656L56.528 14.76C56.5387 14.6213 56.56 14.488 56.592 14.36C56.6347 14.2213 56.6987 14.0987 56.784 13.992C56.8693 13.8853 56.976 13.8 57.104 13.736C57.2427 13.672 57.408 13.64 57.6 13.64H64.752C64.816 13.64 64.8747 13.656 64.928 13.688C64.9813 13.72 65.008 13.7787 65.008 13.864L64.944 14.808C64.9227 15.128 64.832 15.3893 64.672 15.592C64.5227 15.784 64.208 15.88 63.728 15.88H62ZM70.6711 23.016C70.7031 22.664 70.7351 22.296 70.7671 21.912C70.8098 21.528 70.8418 21.16 70.8631 20.808C70.8951 20.456 70.9218 20.1413 70.9431 19.864C70.9645 19.5867 70.9751 19.384 70.9751 19.256C70.9751 18.9787 70.9058 18.7333 70.7671 18.52C70.6391 18.296 70.3831 18.184 69.9991 18.184C69.4871 18.184 69.0711 18.424 68.7511 18.904C68.4418 19.384 68.2605 20.024 68.2071 20.824C68.1858 21.048 68.1591 21.3627 68.1271 21.768C68.0951 22.1627 68.0631 22.568 68.0311 22.984C67.9991 23.3893 67.9671 23.7573 67.9351 24.088C67.9138 24.408 67.9031 24.6053 67.9031 24.68C67.9031 24.808 67.8765 24.8933 67.8231 24.936C67.7805 24.9787 67.6898 25 67.5511 25H66.9751C66.6445 25 66.3725 24.968 66.1591 24.904C65.9565 24.8293 65.7911 24.728 65.6631 24.6C65.5458 24.472 65.4605 24.3173 65.4071 24.136C65.3645 23.944 65.3431 23.7253 65.3431 23.48C65.3431 23.2453 65.3591 22.92 65.3911 22.504C65.4338 22.0773 65.4871 21.496 65.5511 20.76C65.6151 20.0133 65.6898 19.064 65.7751 17.912C65.8605 16.76 65.9511 15.3307 66.0471 13.624C66.0578 13.3893 66.0845 13.2507 66.1271 13.208C66.1591 13.176 66.2445 13.16 66.3831 13.16H67.0071C67.3271 13.16 67.5938 13.1973 67.8071 13.272C68.0205 13.3467 68.1911 13.448 68.3191 13.576C68.4471 13.704 68.5378 13.8533 68.5911 14.024C68.6445 14.184 68.6711 14.3547 68.6711 14.536C68.6711 14.728 68.6498 15.0853 68.6071 15.608C68.5751 16.1307 68.5325 16.744 68.4791 17.448C68.7991 16.9147 69.1511 16.5467 69.5351 16.344C69.9298 16.1413 70.4258 16.04 71.0231 16.04C71.4711 16.04 71.8605 16.088 72.1911 16.184C72.5218 16.28 72.7938 16.4453 73.0071 16.68C73.2311 16.904 73.3965 17.2027 73.5031 17.576C73.6098 17.9387 73.6631 18.392 73.6631 18.936C73.6631 19.1067 73.6471 19.4 73.6151 19.816C73.5831 20.232 73.5405 20.7067 73.4871 21.24C73.4445 21.7733 73.3965 22.3333 73.3431 22.92C73.3005 23.496 73.2631 24.024 73.2311 24.504C73.2205 24.6213 73.2098 24.712 73.1991 24.776C73.1885 24.84 73.1671 24.888 73.1351 24.92C73.1138 24.952 73.0765 24.9733 73.0231 24.984C72.9698 24.9947 72.8951 25 72.7991 25H72.2871C71.9458 25 71.6685 24.968 71.4551 24.904C71.2418 24.84 71.0765 24.7493 70.9591 24.632C70.8418 24.5147 70.7565 24.3707 70.7031 24.2C70.6605 24.0187 70.6391 23.816 70.6391 23.592C70.6391 23.4853 70.6391 23.384 70.6391 23.288C70.6498 23.192 70.6605 23.1013 70.6711 23.016ZM78.7895 25.16C78.3202 25.16 77.8508 25.1013 77.3815 24.984C76.9228 24.8667 76.5068 24.664 76.1335 24.376C75.7708 24.088 75.4722 23.704 75.2375 23.224C75.0028 22.744 74.8855 22.1413 74.8855 21.416C74.8855 21.1493 74.9068 20.8293 74.9495 20.456C74.9922 20.0827 75.0722 19.6987 75.1895 19.304C75.3175 18.9093 75.4882 18.52 75.7015 18.136C75.9255 17.7413 76.2135 17.3893 76.5655 17.08C76.9175 16.7707 77.3442 16.52 77.8455 16.328C78.3468 16.136 78.9442 16.04 79.6375 16.04C80.1922 16.04 80.6615 16.104 81.0455 16.232C81.4295 16.36 81.7388 16.536 81.9735 16.76C82.2082 16.9733 82.3788 17.224 82.4855 17.512C82.5922 17.8 82.6455 18.1093 82.6455 18.44C82.6455 18.9307 82.5442 19.3467 82.3415 19.688C82.1495 20.0293 81.8935 20.3173 81.5735 20.552C81.2642 20.776 80.9175 20.952 80.5335 21.08C80.1495 21.208 79.7708 21.3093 79.3975 21.384C79.0242 21.448 78.6775 21.4907 78.3575 21.512C78.0482 21.5227 77.8082 21.528 77.6375 21.528C77.6375 21.7307 77.6642 21.9333 77.7175 22.136C77.7815 22.328 77.8722 22.4987 77.9895 22.648C78.1068 22.7973 78.2615 22.92 78.4535 23.016C78.6455 23.112 78.8802 23.16 79.1575 23.16C79.4348 23.16 79.6482 23.1173 79.7975 23.032C79.9575 22.936 80.0855 22.8347 80.1815 22.728C80.2775 22.6107 80.3575 22.5093 80.4215 22.424C80.4962 22.328 80.5922 22.28 80.7095 22.28C80.7628 22.28 80.8535 22.296 80.9815 22.328C81.1202 22.3493 81.2588 22.4027 81.3975 22.488C81.5362 22.5733 81.6588 22.6907 81.7655 22.84C81.8722 22.9893 81.9255 23.1813 81.9255 23.416C81.9255 23.7253 81.8295 23.992 81.6375 24.216C81.4455 24.44 81.1948 24.6213 80.8855 24.76C80.5868 24.8987 80.2508 25 79.8775 25.064C79.5042 25.128 79.1415 25.16 78.7895 25.16ZM79.0935 18.168C78.8588 18.168 78.6562 18.2373 78.4855 18.376C78.3255 18.504 78.1868 18.6693 78.0695 18.872C77.9628 19.0747 77.8775 19.2987 77.8135 19.544C77.7602 19.7893 77.7175 20.024 77.6855 20.248C78.3468 20.2373 78.8802 20.1253 79.2855 19.912C79.7015 19.6987 79.9095 19.3947 79.9095 19C79.9095 18.7867 79.8402 18.5947 79.7015 18.424C79.5735 18.2533 79.3708 18.168 79.0935 18.168ZM97.3506 16.472C97.2653 16.728 97.1533 17.064 97.0146 17.48C96.8866 17.8853 96.7426 18.3333 96.5826 18.824C96.4226 19.3147 96.2573 19.8373 96.0866 20.392C95.916 20.936 95.74 21.4693 95.5586 21.992C95.388 22.5147 95.2173 23.016 95.0466 23.496C94.876 23.9653 94.7213 24.376 94.5826 24.728C94.54 24.8133 94.4493 24.8827 94.3106 24.936C94.1826 24.9787 93.9746 25 93.6866 25C93.5053 25 93.3186 24.9893 93.1266 24.968C92.9346 24.9467 92.7533 24.904 92.5826 24.84C92.4226 24.776 92.2786 24.6907 92.1506 24.584C92.0333 24.4773 91.9426 24.344 91.8786 24.184C91.7186 23.64 91.564 23.0373 91.4146 22.376C91.276 21.704 91.1373 21.0213 90.9986 20.328C90.86 19.6347 90.7213 18.9573 90.5826 18.296C90.4546 17.624 90.3213 17.016 90.1826 16.472C90.1826 16.6213 90.1773 16.8773 90.1666 17.24C90.156 17.6027 90.1453 18.024 90.1346 18.504C90.124 18.984 90.108 19.5013 90.0866 20.056C90.076 20.6107 90.0653 21.1547 90.0546 21.688C90.044 22.2107 90.0333 22.7013 90.0226 23.16C90.012 23.608 90.0066 23.976 90.0066 24.264C90.0066 24.584 89.9853 24.7867 89.9426 24.872C89.9106 24.9573 89.8466 25 89.7506 25H88.8706C88.2626 25 87.8306 24.8827 87.5746 24.648C87.3293 24.4027 87.2066 24.0453 87.2066 23.576C87.2066 23.448 87.212 23.2347 87.2226 22.936C87.244 22.6267 87.2706 22.264 87.3026 21.848C87.3346 21.432 87.3666 20.9787 87.3986 20.488C87.4413 19.9867 87.484 19.48 87.5266 18.968C87.58 18.2747 87.6226 17.6987 87.6546 17.24C87.6973 16.7707 87.7293 16.3813 87.7506 16.072C87.772 15.7627 87.788 15.512 87.7986 15.32C87.82 15.128 87.8306 14.9573 87.8306 14.808C87.8413 14.6587 87.8466 14.52 87.8466 14.392C87.8573 14.2533 87.8626 14.0827 87.8626 13.88C87.8626 13.7947 87.8946 13.736 87.9586 13.704C88.0226 13.6613 88.0813 13.64 88.1346 13.64H90.3746C90.7906 13.64 91.132 13.7093 91.3986 13.848C91.6653 13.976 91.884 14.1787 92.0546 14.456C92.2253 14.7333 92.364 15.096 92.4706 15.544C92.5773 15.9813 92.6733 16.504 92.7586 17.112C92.8546 17.72 92.956 18.424 93.0626 19.224C93.18 20.0133 93.3293 20.904 93.5106 21.896C93.6813 21.2347 93.8253 20.6853 93.9426 20.248C94.06 19.8107 94.156 19.448 94.2306 19.16C94.316 18.8613 94.3853 18.616 94.4386 18.424C94.492 18.232 94.54 18.056 94.5826 17.896C94.6253 17.7253 94.6733 17.544 94.7266 17.352C94.78 17.16 94.844 16.92 94.9186 16.632C94.9933 16.344 95.084 15.9867 95.1906 15.56C95.308 15.1227 95.452 14.5733 95.6226 13.912C95.644 13.848 95.6813 13.7893 95.7346 13.736C95.788 13.672 95.884 13.64 96.0226 13.64H98.5186C98.86 13.64 99.132 13.6773 99.3346 13.752C99.548 13.816 99.7133 13.912 99.8306 14.04C99.948 14.168 100.028 14.328 100.071 14.52C100.113 14.7013 100.135 14.9147 100.135 15.16C100.135 15.4053 100.119 15.8053 100.087 16.36C100.065 16.904 100.028 17.5227 99.9746 18.216C99.932 18.8987 99.884 19.608 99.8306 20.344C99.788 21.08 99.74 21.7627 99.6866 22.392C99.644 23.0213 99.6066 23.5547 99.5746 23.992C99.5426 24.4293 99.5213 24.6853 99.5106 24.76C99.5 24.8453 99.4786 24.9093 99.4466 24.952C99.4146 24.984 99.3506 25 99.2546 25H98.3746C97.7666 25 97.3346 24.8827 97.0786 24.648C96.8333 24.4027 96.7106 24.088 96.7106 23.704C96.7106 23.5867 96.7213 23.3733 96.7426 23.064C96.7746 22.7547 96.812 22.392 96.8546 21.976C96.8973 21.56 96.9453 21.1067 96.9986 20.616C97.052 20.1147 97.1 19.6187 97.1426 19.128C97.1853 18.6373 97.2226 18.1627 97.2546 17.704C97.2973 17.2347 97.3293 16.824 97.3506 16.472ZM105.084 25.16C104.348 25.16 103.734 25.0587 103.244 24.856C102.764 24.6427 102.38 24.3547 102.092 23.992C101.804 23.6293 101.601 23.208 101.484 22.728C101.366 22.2373 101.308 21.7147 101.308 21.16C101.308 20.52 101.382 19.896 101.532 19.288C101.692 18.6693 101.958 18.12 102.332 17.64C102.705 17.16 103.196 16.776 103.804 16.488C104.422 16.1893 105.19 16.04 106.108 16.04C107.452 16.04 108.412 16.3707 108.988 17.032C109.574 17.6827 109.868 18.6 109.868 19.784C109.868 20.1147 109.841 20.4827 109.788 20.888C109.745 21.2827 109.654 21.6773 109.516 22.072C109.388 22.4667 109.206 22.8507 108.972 23.224C108.748 23.5973 108.46 23.928 108.108 24.216C107.756 24.504 107.329 24.7333 106.828 24.904C106.337 25.0747 105.756 25.16 105.084 25.16ZM105.836 18.168C105.43 18.168 105.105 18.2747 104.86 18.488C104.625 18.6907 104.444 18.9413 104.316 19.24C104.198 19.528 104.118 19.8373 104.076 20.168C104.044 20.488 104.028 20.76 104.028 20.984C104.028 21.688 104.14 22.2053 104.364 22.536C104.588 22.8667 104.908 23.032 105.324 23.032C105.697 23.032 106.001 22.9147 106.236 22.68C106.481 22.4453 106.668 22.1627 106.796 21.832C106.934 21.5013 107.025 21.1547 107.068 20.792C107.121 20.4293 107.148 20.1253 107.148 19.88C107.148 19.3467 107.046 18.9307 106.844 18.632C106.652 18.3227 106.316 18.168 105.836 18.168ZM114.57 22.968C114.698 22.52 114.815 22.0773 114.922 21.64C115.039 21.2027 115.151 20.7387 115.258 20.248C115.375 19.7467 115.498 19.2027 115.626 18.616C115.765 18.0187 115.925 17.3413 116.106 16.584C116.138 16.4347 116.186 16.3387 116.25 16.296C116.314 16.2427 116.453 16.216 116.666 16.216C116.826 16.216 117.039 16.2213 117.306 16.232C117.573 16.2427 117.834 16.28 118.09 16.344C118.346 16.408 118.565 16.504 118.746 16.632C118.938 16.76 119.034 16.936 119.034 17.16C119.034 17.3413 118.97 17.6347 118.842 18.04C118.714 18.4453 118.549 18.9093 118.346 19.432C118.143 19.944 117.914 20.4827 117.658 21.048C117.413 21.6133 117.173 22.1467 116.938 22.648C116.703 23.1493 116.485 23.592 116.282 23.976C116.079 24.3493 115.93 24.6107 115.834 24.76C115.749 24.8773 115.674 24.9467 115.61 24.968C115.546 24.9893 115.439 25 115.29 25H113.866C113.642 25 113.455 24.9627 113.306 24.888C113.167 24.8027 113.05 24.696 112.954 24.568C112.858 24.44 112.778 24.296 112.714 24.136C112.65 23.9653 112.591 23.7893 112.538 23.608C112.229 22.5413 111.957 21.6293 111.722 20.872C111.498 20.104 111.306 19.464 111.146 18.952C110.986 18.44 110.858 18.0347 110.762 17.736C110.666 17.4267 110.591 17.192 110.538 17.032C110.485 16.8613 110.447 16.7493 110.426 16.696C110.405 16.632 110.394 16.5893 110.394 16.568C110.405 16.4933 110.458 16.4133 110.554 16.328C110.65 16.2427 110.773 16.2 110.922 16.2C111.413 16.2 111.829 16.2213 112.17 16.264C112.522 16.296 112.81 16.36 113.034 16.456C113.269 16.552 113.445 16.6853 113.562 16.856C113.69 17.0267 113.781 17.2507 113.834 17.528C113.845 17.6027 113.866 17.752 113.898 17.976C113.93 18.2 113.962 18.472 113.994 18.792C114.037 19.1013 114.085 19.448 114.138 19.832C114.191 20.2053 114.239 20.584 114.282 20.968C114.335 21.3413 114.383 21.704 114.426 22.056C114.479 22.408 114.527 22.712 114.57 22.968ZM121.507 25C121.176 25 120.904 24.968 120.691 24.904C120.488 24.8293 120.323 24.728 120.195 24.6C120.078 24.472 119.992 24.3173 119.939 24.136C119.896 23.944 119.875 23.7253 119.875 23.48C119.875 23.32 119.88 23.096 119.891 22.808C119.912 22.5093 119.944 22.104 119.987 21.592C120.03 21.0693 120.078 20.4133 120.131 19.624C120.195 18.824 120.27 17.8373 120.355 16.664C120.366 16.4293 120.392 16.2907 120.435 16.248C120.467 16.216 120.552 16.2 120.691 16.2H121.315C121.646 16.2 121.912 16.232 122.115 16.296C122.328 16.36 122.494 16.456 122.611 16.584C122.739 16.712 122.824 16.8667 122.867 17.048C122.92 17.2293 122.947 17.432 122.947 17.656C122.947 17.816 122.936 18.056 122.915 18.376C122.894 18.696 122.862 19.1333 122.819 19.688C122.787 20.232 122.739 20.9147 122.675 21.736C122.611 22.5467 122.531 23.528 122.435 24.68C122.424 24.808 122.398 24.8933 122.355 24.936C122.312 24.9787 122.222 25 122.083 25H121.507ZM120.371 14.312C120.371 13.8853 120.526 13.5493 120.835 13.304C121.144 13.0587 121.56 12.936 122.083 12.936C122.542 12.936 122.872 13.032 123.075 13.224C123.288 13.4053 123.395 13.6507 123.395 13.96C123.395 14.3547 123.246 14.6853 122.947 14.952C122.659 15.208 122.232 15.336 121.667 15.336C120.803 15.336 120.371 14.9947 120.371 14.312ZM128.055 25.16C127.586 25.16 127.116 25.1013 126.647 24.984C126.188 24.8667 125.772 24.664 125.399 24.376C125.036 24.088 124.738 23.704 124.503 23.224C124.268 22.744 124.151 22.1413 124.151 21.416C124.151 21.1493 124.172 20.8293 124.215 20.456C124.258 20.0827 124.338 19.6987 124.455 19.304C124.583 18.9093 124.754 18.52 124.967 18.136C125.191 17.7413 125.479 17.3893 125.831 17.08C126.183 16.7707 126.61 16.52 127.111 16.328C127.612 16.136 128.21 16.04 128.903 16.04C129.458 16.04 129.927 16.104 130.311 16.232C130.695 16.36 131.004 16.536 131.239 16.76C131.474 16.9733 131.644 17.224 131.751 17.512C131.858 17.8 131.911 18.1093 131.911 18.44C131.911 18.9307 131.81 19.3467 131.607 19.688C131.415 20.0293 131.159 20.3173 130.839 20.552C130.53 20.776 130.183 20.952 129.799 21.08C129.415 21.208 129.036 21.3093 128.663 21.384C128.29 21.448 127.943 21.4907 127.623 21.512C127.314 21.5227 127.074 21.528 126.903 21.528C126.903 21.7307 126.93 21.9333 126.983 22.136C127.047 22.328 127.138 22.4987 127.255 22.648C127.372 22.7973 127.527 22.92 127.719 23.016C127.911 23.112 128.146 23.16 128.423 23.16C128.7 23.16 128.914 23.1173 129.063 23.032C129.223 22.936 129.351 22.8347 129.447 22.728C129.543 22.6107 129.623 22.5093 129.687 22.424C129.762 22.328 129.858 22.28 129.975 22.28C130.028 22.28 130.119 22.296 130.247 22.328C130.386 22.3493 130.524 22.4027 130.663 22.488C130.802 22.5733 130.924 22.6907 131.031 22.84C131.138 22.9893 131.191 23.1813 131.191 23.416C131.191 23.7253 131.095 23.992 130.903 24.216C130.711 24.44 130.46 24.6213 130.151 24.76C129.852 24.8987 129.516 25 129.143 25.064C128.77 25.128 128.407 25.16 128.055 25.16ZM128.359 18.168C128.124 18.168 127.922 18.2373 127.751 18.376C127.591 18.504 127.452 18.6693 127.335 18.872C127.228 19.0747 127.143 19.2987 127.079 19.544C127.026 19.7893 126.983 20.024 126.951 20.248C127.612 20.2373 128.146 20.1253 128.551 19.912C128.967 19.6987 129.175 19.3947 129.175 19C129.175 18.7867 129.106 18.5947 128.967 18.424C128.839 18.2533 128.636 18.168 128.359 18.168ZM141.234 15.88L140.626 24.76C140.616 24.92 140.557 25 140.45 25H139.57C138.973 25 138.546 24.8827 138.29 24.648C138.034 24.4133 137.906 24.0773 137.906 23.64C137.906 23.48 137.912 23.24 137.922 22.92C137.944 22.6 137.97 22.2267 138.002 21.8C138.034 21.3627 138.066 20.8933 138.098 20.392C138.141 19.88 138.184 19.368 138.226 18.856C138.269 18.3333 138.306 17.816 138.338 17.304C138.381 16.792 138.418 16.3173 138.45 15.88H135.89C135.773 15.88 135.714 15.8053 135.714 15.656L135.762 14.76C135.773 14.6213 135.794 14.488 135.826 14.36C135.869 14.2213 135.933 14.0987 136.018 13.992C136.104 13.8853 136.21 13.8 136.338 13.736C136.477 13.672 136.642 13.64 136.834 13.64H143.986C144.05 13.64 144.109 13.656 144.162 13.688C144.216 13.72 144.242 13.7787 144.242 13.864L144.178 14.808C144.157 15.128 144.066 15.3893 143.906 15.592C143.757 15.784 143.442 15.88 142.962 15.88H141.234ZM149.137 20.024C149.073 20.024 148.998 20.024 148.913 20.024C148.838 20.0133 148.763 20.0027 148.689 19.992C148.614 19.9707 148.55 19.9493 148.497 19.928C148.443 19.896 148.417 19.8587 148.417 19.816C148.417 19.6773 148.422 19.5493 148.433 19.432C148.443 19.3147 148.449 19.192 148.449 19.064C148.449 18.8293 148.417 18.6373 148.353 18.488C148.289 18.3387 148.161 18.264 147.969 18.264C147.67 18.264 147.419 18.4613 147.217 18.856C147.025 19.24 146.902 19.8213 146.849 20.6C146.827 20.9413 146.795 21.3307 146.753 21.768C146.721 22.1947 146.689 22.6107 146.657 23.016C146.625 23.4107 146.598 23.7627 146.577 24.072C146.555 24.3813 146.545 24.584 146.545 24.68C146.545 24.7867 146.507 24.8667 146.433 24.92C146.358 24.9733 146.278 25 146.193 25H145.617C145.286 25 145.014 24.968 144.801 24.904C144.598 24.8293 144.433 24.728 144.305 24.6C144.187 24.472 144.102 24.3173 144.049 24.136C144.006 23.944 143.985 23.7253 143.985 23.48C143.985 23.32 143.99 23.096 144.001 22.808C144.022 22.5093 144.054 22.104 144.097 21.592C144.139 21.0693 144.187 20.4133 144.241 19.624C144.305 18.824 144.379 17.8373 144.465 16.664C144.486 16.3547 144.598 16.2 144.801 16.2H145.424C145.723 16.2 145.974 16.232 146.177 16.296C146.379 16.36 146.545 16.4507 146.673 16.568C146.801 16.6747 146.891 16.8027 146.945 16.952C147.009 17.1013 147.051 17.256 147.073 17.416C147.201 17.1707 147.35 16.9627 147.521 16.792C147.702 16.6107 147.889 16.4667 148.081 16.36C148.273 16.2427 148.47 16.1627 148.673 16.12C148.875 16.0667 149.062 16.04 149.233 16.04C149.435 16.04 149.638 16.0773 149.841 16.152C150.054 16.2267 150.246 16.3387 150.417 16.488C150.587 16.6373 150.721 16.8293 150.817 17.064C150.923 17.2987 150.977 17.576 150.977 17.896C150.977 18.184 150.934 18.456 150.849 18.712C150.763 18.968 150.641 19.1973 150.481 19.4C150.321 19.592 150.123 19.7467 149.889 19.864C149.665 19.9707 149.414 20.024 149.137 20.024ZM156.058 21.368C155.76 21.4 155.466 21.4533 155.178 21.528C154.89 21.6027 154.634 21.6933 154.41 21.8C154.186 21.9067 154.005 22.0453 153.866 22.216C153.728 22.3867 153.658 22.5413 153.658 22.68C153.658 22.9467 153.744 23.1333 153.914 23.24C154.085 23.336 154.266 23.384 154.458 23.384C154.64 23.384 154.821 23.3467 155.002 23.272C155.194 23.1867 155.36 23.064 155.498 22.904C155.637 22.7333 155.76 22.5253 155.866 22.28C155.973 22.0347 156.037 21.7307 156.058 21.368ZM151.082 23.032C151.082 22.1467 151.514 21.432 152.378 20.888C153.242 20.344 154.517 19.944 156.202 19.688C156.213 19.6667 156.218 19.6293 156.218 19.576C156.229 19.512 156.234 19.4213 156.234 19.304C156.234 18.9627 156.17 18.68 156.042 18.456C155.914 18.2213 155.648 18.0933 155.242 18.072C155.018 18.0933 154.837 18.1413 154.698 18.216C154.56 18.28 154.437 18.376 154.33 18.504C154.234 18.6213 154.165 18.7227 154.122 18.808C154.09 18.8933 154.042 19.032 153.978 19.224C153.957 19.32 153.909 19.384 153.834 19.416C153.77 19.4373 153.664 19.448 153.514 19.448C152.426 19.448 151.882 19.0587 151.882 18.28C151.882 18.0773 151.957 17.8267 152.106 17.528C152.266 17.2293 152.496 16.9733 152.794 16.76C153.104 16.536 153.488 16.36 153.946 16.232C154.405 16.104 154.938 16.04 155.546 16.04C156.73 16.04 157.589 16.2853 158.122 16.776C158.656 17.2667 158.922 17.96 158.922 18.856C158.922 18.9733 158.906 19.1867 158.874 19.496C158.853 19.7947 158.821 20.1147 158.778 20.456C158.746 20.7867 158.714 21.1013 158.682 21.4C158.661 21.6987 158.65 21.9067 158.65 22.024C158.65 22.2907 158.698 22.4827 158.794 22.6C158.89 22.7067 158.997 22.7813 159.114 22.824C159.242 22.8667 159.354 22.8987 159.45 22.92C159.546 22.9413 159.594 22.9947 159.594 23.08C159.594 23.3147 159.562 23.5547 159.498 23.8C159.434 24.0453 159.328 24.2693 159.178 24.472C159.04 24.6747 158.842 24.84 158.586 24.968C158.341 25.096 158.037 25.16 157.674 25.16C157.162 25.16 156.778 25.0373 156.522 24.792C156.266 24.5467 156.096 24.2053 156.01 23.768C155.754 24.1413 155.418 24.4667 155.002 24.744C154.597 25.0213 154.064 25.16 153.402 25.16C153.082 25.16 152.778 25.1227 152.49 25.048C152.213 24.9733 151.968 24.8507 151.754 24.68C151.552 24.5093 151.386 24.2907 151.258 24.024C151.141 23.7467 151.082 23.416 151.082 23.032ZM164.61 23.032C164.919 23.032 165.186 22.9893 165.41 22.904C165.645 22.8187 165.847 22.7227 166.018 22.616C166.189 22.5093 166.333 22.4133 166.45 22.328C166.567 22.2427 166.674 22.2 166.77 22.2C167.015 22.2 167.138 22.36 167.138 22.68C167.138 22.7547 167.122 22.8613 167.09 23C167.058 23.128 167.015 23.2667 166.962 23.416C166.909 23.5547 166.85 23.688 166.786 23.816C166.733 23.944 166.679 24.04 166.626 24.104C166.573 24.1573 166.477 24.2427 166.338 24.36C166.21 24.4773 166.034 24.5947 165.81 24.712C165.586 24.8293 165.325 24.9307 165.026 25.016C164.727 25.112 164.397 25.16 164.034 25.16C163.629 25.16 163.207 25.1013 162.77 24.984C162.343 24.856 161.954 24.6427 161.602 24.344C161.25 24.0347 160.957 23.624 160.722 23.112C160.498 22.5893 160.386 21.9387 160.386 21.16C160.386 20.8827 160.402 20.568 160.434 20.216C160.477 19.8533 160.557 19.4853 160.674 19.112C160.791 18.728 160.946 18.3547 161.138 17.992C161.341 17.6187 161.607 17.288 161.938 17C162.269 16.712 162.663 16.4827 163.122 16.312C163.591 16.1307 164.146 16.04 164.786 16.04C165.309 16.04 165.757 16.104 166.13 16.232C166.514 16.3493 166.829 16.5147 167.074 16.728C167.319 16.9307 167.501 17.1707 167.618 17.448C167.746 17.7253 167.81 18.024 167.81 18.344C167.81 18.92 167.629 19.3467 167.266 19.624C166.903 19.8907 166.391 20.024 165.73 20.024C165.57 20.024 165.458 20.0133 165.394 19.992C165.341 19.96 165.314 19.896 165.314 19.8C165.314 19.544 165.309 19.3147 165.298 19.112C165.287 18.9093 165.255 18.7387 165.202 18.6C165.159 18.4613 165.09 18.3547 164.994 18.28C164.898 18.2053 164.759 18.168 164.578 18.168C164.247 18.168 163.981 18.2747 163.778 18.488C163.586 18.7013 163.437 18.9627 163.33 19.272C163.234 19.5707 163.17 19.88 163.138 20.2C163.117 20.52 163.106 20.7867 163.106 21C163.106 21.7573 163.223 22.2853 163.458 22.584C163.703 22.8827 164.087 23.032 164.61 23.032ZM176.303 23.704C176.303 23.7573 176.276 23.864 176.223 24.024C176.17 24.184 176.084 24.3493 175.967 24.52C175.85 24.6907 175.7 24.84 175.519 24.968C175.348 25.096 175.14 25.16 174.895 25.16C174.607 25.16 174.319 25.064 174.031 24.872C173.754 24.68 173.476 24.4187 173.199 24.088C172.922 23.7573 172.639 23.368 172.351 22.92C172.074 22.4613 171.791 21.9653 171.503 21.432C171.46 21.9973 171.418 22.552 171.375 23.096C171.332 23.64 171.29 24.168 171.247 24.68C171.236 24.808 171.21 24.8933 171.167 24.936C171.124 24.9787 171.034 25 170.895 25H170.319C169.988 25 169.716 24.968 169.503 24.904C169.29 24.8293 169.124 24.728 169.007 24.6C168.89 24.472 168.804 24.312 168.751 24.12C168.708 23.9173 168.687 23.688 168.687 23.432C168.687 23.304 168.692 23.1707 168.703 23.032C168.714 22.8933 168.73 22.696 168.751 22.44C168.772 22.184 168.799 21.848 168.831 21.432C168.874 21.016 168.922 20.4667 168.975 19.784C169.028 19.1013 169.087 18.264 169.151 17.272C169.226 16.2693 169.306 15.0533 169.391 13.624C169.402 13.3893 169.428 13.2507 169.471 13.208C169.503 13.176 169.588 13.16 169.727 13.16H170.351C170.682 13.16 170.954 13.1973 171.167 13.272C171.38 13.3467 171.551 13.448 171.679 13.576C171.807 13.704 171.892 13.8533 171.935 14.024C171.988 14.1947 172.015 14.3707 172.015 14.552C172.015 14.6587 172.004 14.84 171.983 15.096C171.972 15.3413 171.956 15.6453 171.935 16.008C171.914 16.36 171.882 16.76 171.839 17.208C171.807 17.656 171.775 18.1253 171.743 18.616L174.303 16.28C174.399 16.1947 174.484 16.136 174.559 16.104C174.644 16.072 174.708 16.056 174.751 16.056C174.868 16.056 174.996 16.1307 175.135 16.28C175.274 16.4293 175.402 16.6053 175.519 16.808C175.647 17 175.748 17.2027 175.823 17.416C175.908 17.6187 175.951 17.784 175.951 17.912C175.951 18.2213 175.7 18.5467 175.199 18.888C174.708 19.2293 173.962 19.6133 172.959 20.04C173.407 20.5413 173.834 21 174.239 21.416C174.644 21.832 174.996 22.2 175.295 22.52C175.604 22.84 175.85 23.1013 176.031 23.304C176.212 23.5067 176.303 23.64 176.303 23.704ZM181.024 25.16C180.555 25.16 180.085 25.1013 179.616 24.984C179.157 24.8667 178.741 24.664 178.368 24.376C178.005 24.088 177.707 23.704 177.472 23.224C177.237 22.744 177.12 22.1413 177.12 21.416C177.12 21.1493 177.141 20.8293 177.184 20.456C177.227 20.0827 177.307 19.6987 177.424 19.304C177.552 18.9093 177.723 18.52 177.936 18.136C178.16 17.7413 178.448 17.3893 178.8 17.08C179.152 16.7707 179.579 16.52 180.08 16.328C180.581 16.136 181.179 16.04 181.872 16.04C182.427 16.04 182.896 16.104 183.28 16.232C183.664 16.36 183.973 16.536 184.208 16.76C184.443 16.9733 184.613 17.224 184.72 17.512C184.827 17.8 184.88 18.1093 184.88 18.44C184.88 18.9307 184.779 19.3467 184.576 19.688C184.384 20.0293 184.128 20.3173 183.808 20.552C183.499 20.776 183.152 20.952 182.768 21.08C182.384 21.208 182.005 21.3093 181.632 21.384C181.259 21.448 180.912 21.4907 180.592 21.512C180.283 21.5227 180.043 21.528 179.872 21.528C179.872 21.7307 179.899 21.9333 179.952 22.136C180.016 22.328 180.107 22.4987 180.224 22.648C180.341 22.7973 180.496 22.92 180.688 23.016C180.88 23.112 181.115 23.16 181.392 23.16C181.669 23.16 181.883 23.1173 182.032 23.032C182.192 22.936 182.32 22.8347 182.416 22.728C182.512 22.6107 182.592 22.5093 182.656 22.424C182.731 22.328 182.827 22.28 182.944 22.28C182.997 22.28 183.088 22.296 183.216 22.328C183.355 22.3493 183.493 22.4027 183.632 22.488C183.771 22.5733 183.893 22.6907 184 22.84C184.107 22.9893 184.16 23.1813 184.16 23.416C184.16 23.7253 184.064 23.992 183.872 24.216C183.68 24.44 183.429 24.6213 183.12 24.76C182.821 24.8987 182.485 25 182.112 25.064C181.739 25.128 181.376 25.16 181.024 25.16ZM181.328 18.168C181.093 18.168 180.891 18.2373 180.72 18.376C180.56 18.504 180.421 18.6693 180.304 18.872C180.197 19.0747 180.112 19.2987 180.048 19.544C179.995 19.7893 179.952 20.024 179.92 20.248C180.581 20.2373 181.115 20.1253 181.52 19.912C181.936 19.6987 182.144 19.3947 182.144 19C182.144 18.7867 182.075 18.5947 181.936 18.424C181.808 18.2533 181.605 18.168 181.328 18.168ZM191.012 20.024C190.948 20.024 190.873 20.024 190.788 20.024C190.713 20.0133 190.638 20.0027 190.564 19.992C190.489 19.9707 190.425 19.9493 190.372 19.928C190.318 19.896 190.292 19.8587 190.292 19.816C190.292 19.6773 190.297 19.5493 190.308 19.432C190.318 19.3147 190.324 19.192 190.324 19.064C190.324 18.8293 190.292 18.6373 190.228 18.488C190.164 18.3387 190.036 18.264 189.844 18.264C189.545 18.264 189.294 18.4613 189.092 18.856C188.9 19.24 188.777 19.8213 188.724 20.6C188.702 20.9413 188.67 21.3307 188.628 21.768C188.596 22.1947 188.564 22.6107 188.532 23.016C188.5 23.4107 188.473 23.7627 188.452 24.072C188.43 24.3813 188.42 24.584 188.42 24.68C188.42 24.7867 188.382 24.8667 188.308 24.92C188.233 24.9733 188.153 25 188.068 25H187.492C187.161 25 186.889 24.968 186.676 24.904C186.473 24.8293 186.308 24.728 186.18 24.6C186.062 24.472 185.977 24.3173 185.924 24.136C185.881 23.944 185.86 23.7253 185.86 23.48C185.86 23.32 185.865 23.096 185.876 22.808C185.897 22.5093 185.929 22.104 185.972 21.592C186.014 21.0693 186.062 20.4133 186.116 19.624C186.18 18.824 186.254 17.8373 186.34 16.664C186.361 16.3547 186.473 16.2 186.676 16.2H187.299C187.598 16.2 187.849 16.232 188.052 16.296C188.254 16.36 188.42 16.4507 188.548 16.568C188.676 16.6747 188.766 16.8027 188.82 16.952C188.884 17.1013 188.926 17.256 188.948 17.416C189.076 17.1707 189.225 16.9627 189.396 16.792C189.577 16.6107 189.764 16.4667 189.956 16.36C190.148 16.2427 190.345 16.1627 190.548 16.12C190.75 16.0667 190.937 16.04 191.108 16.04C191.31 16.04 191.513 16.0773 191.716 16.152C191.929 16.2267 192.121 16.3387 192.292 16.488C192.462 16.6373 192.596 16.8293 192.692 17.064C192.798 17.2987 192.852 17.576 192.852 17.896C192.852 18.184 192.809 18.456 192.724 18.712C192.638 18.968 192.516 19.1973 192.356 19.4C192.196 19.592 191.998 19.7467 191.764 19.864C191.54 19.9707 191.289 20.024 191.012 20.024Z" fill="white"/>
</svg>
